<?xml version="1.0" encoding="UTF-8"?>
<svg xmlns="http://www.w3.org/2000/svg" xmlns:xlink="http://www.w3.org/1999/xlink" width="20px" height="20px" viewBox="0 0 20 20" version="1.1">
<g id="surface1">
<path style=" stroke:none;fill-rule:nonzero;fill:white;fill-opacity:1;" d="M 7.898438 1.570312 C 7.257812 1.570312 5.980469 1.566406 5.304688 1.566406 C 4.632812 1.566406 4.566406 1.5625 4.507812 1.566406 C 4.453125 1.574219 4.40625 1.582031 4.34375 1.605469 C 4.28125 1.632812 4.207031 1.667969 4.128906 1.710938 C 4.050781 1.75 3.972656 1.796875 3.90625 1.851562 C 3.839844 1.902344 3.785156 1.957031 3.726562 2.03125 C 3.671875 2.105469 3.613281 2.199219 3.574219 2.292969 C 3.53125 2.386719 3.511719 2.480469 3.496094 2.5625 C 3.484375 2.648438 3.484375 2.722656 3.480469 3.699219 C 3.480469 4.679688 3.476562 6.558594 3.476562 7.515625 C 3.472656 8.472656 3.472656 8.5 3.488281 8.546875 C 3.5 8.597656 3.523438 8.667969 3.550781 8.734375 C 3.582031 8.800781 3.621094 8.863281 3.644531 8.902344 C 3.671875 8.941406 3.683594 8.960938 3.738281 9.019531 C 3.789062 9.078125 3.882812 9.171875 4.308594 9.597656 C 4.730469 10.019531 5.484375 10.773438 5.871094 11.160156 C 6.261719 11.546875 6.289062 11.570312 6.324219 11.597656 C 6.355469 11.621094 6.394531 11.652344 6.433594 11.679688 C 6.472656 11.707031 6.511719 11.730469 6.550781 11.75 C 6.59375 11.769531 6.636719 11.785156 6.671875 11.792969 C 6.707031 11.800781 6.726562 11.804688 6.765625 11.804688 C 6.804688 11.804688 6.855469 11.808594 8.328125 11.808594 C 9.796875 11.808594 12.679688 11.808594 14.152344 11.808594 C 15.628906 11.808594 15.691406 11.808594 15.757812 11.800781 C 15.820312 11.792969 15.886719 11.78125 15.960938 11.746094 C 16.039062 11.714844 16.121094 11.660156 16.1875 11.617188 C 16.253906 11.570312 16.300781 11.535156 16.359375 11.480469 C 16.417969 11.425781 16.484375 11.359375 16.539062 11.28125 C 16.597656 11.203125 16.640625 11.117188 16.671875 11.042969 C 16.703125 10.972656 16.71875 10.914062 16.726562 10.007812 C 16.734375 9.097656 16.734375 7.335938 16.734375 6.441406 C 16.734375 5.542969 16.734375 5.507812 16.726562 5.46875 C 16.722656 5.429688 16.707031 5.386719 16.683594 5.339844 C 16.65625 5.289062 16.617188 5.230469 16.558594 5.160156 C 16.496094 5.089844 16.417969 5.003906 15.925781 4.511719 C 15.4375 4.023438 14.542969 3.132812 14.085938 2.667969 C 13.625 2.203125 13.601562 2.167969 13.582031 2.136719 C 13.5625 2.101562 13.542969 2.070312 13.503906 2.027344 C 13.464844 1.980469 13.40625 1.921875 13.328125 1.859375 C 13.25 1.796875 13.152344 1.730469 13.042969 1.679688 C 12.929688 1.628906 12.808594 1.589844 12.695312 1.570312 C 12.585938 1.550781 12.484375 1.550781 11.792969 1.554688 C 11.105469 1.558594 9.820312 1.5625 9.179688 1.566406 C 8.539062 1.570312 8.539062 1.570312 7.898438 1.570312 Z M 7.898438 1.570312 "/>
<path style=" stroke:none;fill-rule:nonzero;fill:white;fill-opacity:1;" d="M 13.605469 2.246094 C 13.613281 3.175781 13.621094 4.105469 13.621094 4.578125 C 13.621094 5.050781 13.609375 5.070312 13.613281 5.089844 C 13.617188 5.109375 13.632812 5.132812 13.648438 5.152344 C 13.667969 5.171875 13.691406 5.191406 13.71875 5.210938 C 13.75 5.226562 13.789062 5.246094 13.832031 5.261719 C 13.875 5.273438 13.925781 5.28125 14.386719 5.28125 C 14.851562 5.285156 15.734375 5.289062 16.179688 5.289062 C 16.625 5.289062 16.636719 5.289062 16.648438 5.292969 C 16.648438 5.292969 13.585938 2.15625 13.585938 2.15625 C 13.585938 2.15625 13.605469 2.246094 13.605469 2.246094 Z M 13.605469 2.246094 "/>
<path style=" stroke:none;fill-rule:nonzero;fill:white;fill-opacity:1;" d="M 8.640625 3.304688 C 8.597656 3.328125 8.515625 3.375 8.355469 3.445312 C 8.199219 3.511719 7.964844 3.605469 7.742188 3.679688 C 7.519531 3.757812 7.308594 3.820312 7.03125 3.894531 C 6.753906 3.96875 6.410156 4.054688 6.226562 4.101562 C 6.046875 4.152344 6.023438 4.160156 6.003906 4.179688 C 5.980469 4.199219 5.960938 4.230469 5.945312 4.585938 C 5.925781 4.941406 5.914062 5.625 5.925781 6.070312 C 5.9375 6.511719 5.972656 6.71875 6.011719 6.882812 C 6.050781 7.042969 6.097656 7.160156 6.171875 7.308594 C 6.246094 7.453125 6.347656 7.628906 6.449219 7.773438 C 6.546875 7.917969 6.640625 8.035156 6.84375 8.210938 C 7.046875 8.386719 7.359375 8.625 7.6875 8.851562 C 8.011719 9.078125 8.347656 9.292969 8.6875 9.507812 C 9.097656 9.25 9.507812 8.996094 9.792969 8.804688 C 10.074219 8.617188 10.226562 8.492188 10.359375 8.363281 C 10.492188 8.238281 10.609375 8.109375 10.722656 7.953125 C 10.839844 7.796875 10.957031 7.613281 11.050781 7.421875 C 11.140625 7.230469 11.210938 7.03125 11.257812 6.890625 C 11.300781 6.746094 11.328125 6.660156 11.339844 6.46875 C 11.351562 6.28125 11.351562 5.996094 11.347656 5.628906 C 11.34375 5.261719 11.335938 4.8125 11.332031 4.566406 C 11.328125 4.320312 11.328125 4.277344 11.308594 4.234375 C 11.289062 4.195312 11.253906 4.160156 11.199219 4.128906 C 11.144531 4.101562 11.070312 4.078125 10.96875 4.050781 C 10.867188 4.023438 10.738281 3.992188 10.582031 3.953125 C 10.425781 3.914062 10.242188 3.867188 10.101562 3.832031 C 9.960938 3.792969 9.867188 3.773438 9.757812 3.738281 C 9.648438 3.707031 9.523438 3.664062 9.394531 3.613281 C 9.265625 3.558594 9.128906 3.496094 9.007812 3.441406 C 8.890625 3.382812 8.785156 3.332031 8.734375 3.308594 C 8.679688 3.28125 8.679688 3.28125 8.640625 3.304688 Z M 8.640625 3.304688 "/>
<path style=" stroke:none;fill-rule:nonzero;fill:white;fill-opacity:1;" d="M 12.292969 7.484375 L 14.921875 7.484375 C 15.105469 7.484375 15.25 7.632812 15.25 7.816406 C 15.25 8 15.105469 8.148438 14.921875 8.148438 L 12.292969 8.148438 C 12.113281 8.148438 11.964844 8 11.964844 7.816406 C 11.964844 7.632812 12.113281 7.484375 12.292969 7.484375 Z M 12.292969 7.484375 "/>
<path style=" stroke:none;fill-rule:nonzero;fill:white;fill-opacity:1;" d="M 10.742188 9.683594 L 14.929688 9.683594 C 15.105469 9.683594 15.246094 9.828125 15.246094 10.003906 C 15.246094 10.183594 15.105469 10.328125 14.929688 10.328125 L 10.742188 10.328125 C 10.566406 10.328125 10.421875 10.183594 10.421875 10.003906 C 10.421875 9.828125 10.566406 9.683594 10.742188 9.683594 Z M 10.742188 9.683594 "/>
<path style=" stroke:none;fill-rule:nonzero;fill:white;fill-opacity:1;" d="M 8.359375 12.390625 C 9.871094 12.390625 12.828125 12.390625 14.335938 12.390625 C 15.84375 12.386719 15.910156 12.382812 15.957031 12.371094 C 16.007812 12.363281 16.042969 12.347656 16.078125 12.335938 C 16.113281 12.320312 16.152344 12.308594 16.191406 12.289062 C 16.230469 12.269531 16.273438 12.242188 16.332031 12.203125 C 16.390625 12.164062 16.460938 12.117188 16.507812 12.097656 C 16.554688 12.078125 16.578125 12.085938 16.59375 12.089844 C 16.613281 12.09375 16.625 12.09375 16.652344 12.144531 C 16.683594 12.191406 16.726562 12.292969 16.742188 12.613281 C 16.757812 12.933594 16.746094 13.472656 16.730469 13.777344 C 16.71875 14.085938 16.703125 14.160156 16.675781 14.230469 C 16.648438 14.300781 16.613281 14.363281 16.558594 14.445312 C 16.5 14.523438 16.425781 14.613281 16.339844 14.691406 C 16.25 14.765625 16.152344 14.828125 16.066406 14.875 C 15.980469 14.917969 15.90625 14.953125 15.839844 14.972656 C 15.769531 14.992188 15.707031 14.996094 14.210938 15 C 12.714844 15.003906 9.78125 15.003906 8.292969 15 C 6.804688 15 6.753906 15 6.699219 14.988281 C 6.648438 14.980469 6.589844 14.960938 6.535156 14.933594 C 6.480469 14.910156 6.429688 14.878906 6.351562 14.8125 C 6.273438 14.746094 6.167969 14.644531 5.882812 14.367188 C 5.597656 14.085938 5.132812 13.625 4.742188 13.238281 C 4.351562 12.847656 4.039062 12.535156 3.863281 12.359375 C 3.691406 12.183594 3.660156 12.148438 3.628906 12.101562 C 3.597656 12.054688 3.566406 11.996094 3.546875 11.941406 C 3.527344 11.886719 3.511719 11.835938 3.507812 11.773438 C 3.5 11.714844 3.5 11.648438 3.496094 11.316406 C 3.492188 10.984375 3.484375 10.382812 3.484375 10.078125 C 3.480469 9.773438 3.484375 9.761719 3.507812 9.742188 C 3.527344 9.722656 3.5625 9.691406 3.585938 9.679688 C 3.605469 9.667969 3.613281 9.671875 4.007812 10.070312 C 4.40625 10.46875 5.191406 11.253906 5.617188 11.675781 C 6.042969 12.097656 6.109375 12.152344 6.183594 12.199219 C 6.261719 12.25 6.351562 12.292969 6.441406 12.324219 C 6.53125 12.355469 6.621094 12.375 6.699219 12.382812 C 6.78125 12.390625 6.847656 12.390625 8.359375 12.390625 Z M 8.359375 12.390625 "/>
<path style=" stroke:none;fill-rule:nonzero;fill:white;fill-opacity:1;" d="M 8.386719 15.59375 C 9.867188 15.59375 12.820312 15.59375 14.328125 15.589844 C 15.839844 15.585938 15.902344 15.582031 15.953125 15.574219 C 16 15.5625 16.035156 15.550781 16.070312 15.535156 C 16.105469 15.523438 16.144531 15.507812 16.183594 15.488281 C 16.222656 15.46875 16.265625 15.441406 16.324219 15.402344 C 16.382812 15.367188 16.453125 15.316406 16.5 15.296875 C 16.546875 15.277344 16.570312 15.285156 16.585938 15.289062 C 16.605469 15.292969 16.617188 15.292969 16.644531 15.34375 C 16.675781 15.394531 16.71875 15.492188 16.738281 15.808594 C 16.753906 16.125 16.738281 16.652344 16.722656 16.957031 C 16.703125 17.257812 16.683594 17.335938 16.652344 17.402344 C 16.621094 17.472656 16.582031 17.535156 16.535156 17.597656 C 16.484375 17.664062 16.425781 17.726562 16.359375 17.789062 C 16.292969 17.847656 16.21875 17.90625 16.144531 17.957031 C 16.074219 18.007812 16 18.050781 15.914062 18.082031 C 15.828125 18.113281 15.730469 18.132812 14.253906 18.140625 C 12.777344 18.144531 9.925781 18.140625 8.457031 18.140625 C 6.988281 18.140625 6.898438 18.140625 6.855469 18.140625 C 6.808594 18.140625 6.523438 18.140625 6.4375 18.140625 C 6.355469 18.140625 6.1875 18.140625 6.007812 18.125 C 5.824219 18.105469 5.628906 18.070312 5.347656 17.855469 C 5.066406 17.640625 4.699219 17.25 4.394531 16.929688 C 4.089844 16.605469 3.847656 16.355469 3.707031 16.175781 C 3.566406 15.996094 3.53125 15.882812 3.511719 15.730469 C 3.492188 15.578125 3.496094 15.386719 3.496094 15.253906 C 3.496094 15.121094 3.496094 15.050781 3.496094 14.984375 C 3.492188 14.917969 3.492188 14.851562 3.488281 14.519531 C 3.484375 14.183594 3.480469 13.585938 3.476562 13.28125 C 3.476562 12.972656 3.480469 12.960938 3.5 12.941406 C 3.519531 12.921875 3.554688 12.894531 3.578125 12.882812 C 3.597656 12.871094 3.605469 12.875 4 13.269531 C 4.398438 13.667969 5.183594 14.457031 5.609375 14.878906 C 6.035156 15.300781 6.101562 15.351562 6.179688 15.402344 C 6.253906 15.449219 6.34375 15.492188 6.433594 15.523438 C 6.523438 15.554688 6.613281 15.574219 6.691406 15.582031 C 6.773438 15.59375 6.84375 15.59375 6.875 15.59375 C 6.910156 15.59375 6.910156 15.59375 8.386719 15.59375 Z M 8.386719 15.59375 "/>
</g>
</svg>
